<?xml version="1.0" encoding="utf-8"?>
<svg version="1.1" xmlns:xlink="http://www.w3.org/1999/xlink" width="20px" height="15px" xmlns="http://www.w3.org/2000/svg">
  <g transform="matrix(1 0 0 1 -1298 -224 )">
    <path d="M 19.8939732142857 9.74888392857143  C 19.9646577380952 9.81956845238095  20 9.90327380952381  20 10  L 20 12.1428571428571  C 20 12.2395833333333  19.9646577380952 12.3232886904762  19.8939732142857 12.3939732142857  C 19.8232886904762 12.4646577380952  19.7395833333333 12.5  19.6428571428571 12.5  L 4.28571428571429 12.5  L 4.28571428571429 14.6428571428571  C 4.28571428571429 14.7395833333333  4.25037202380952 14.8232886904762  4.1796875 14.8939732142857  C 4.10900297619048 14.9646577380952  4.02529761904762 15  3.92857142857143 15  C 3.83928571428571 15  3.75 14.9627976190476  3.66071428571429 14.8883928571429  L 0.100446428571429 11.3169642857143  C 0.0334821428571429 11.25  0 11.1681547619048  0 11.0714285714286  C 0 10.9672619047619  0.0334821428571429 10.8816964285714  0.100446428571429 10.8147321428571  L 3.671875 7.24330357142857  C 3.73883928571429 7.17633928571429  3.82440476190476 7.14285714285714  3.92857142857143 7.14285714285714  C 4.02529761904762 7.14285714285714  4.10900297619048 7.17819940476191  4.1796875 7.24888392857143  C 4.25037202380952 7.31956845238095  4.28571428571429 7.40327380952381  4.28571428571429 7.5  L 4.28571428571429 9.64285714285714  L 19.6428571428571 9.64285714285714  C 19.7395833333333 9.64285714285714  19.8232886904762 9.67819940476191  19.8939732142857 9.74888392857143  Z M 19.8995535714286 3.671875  C 19.9665178571429 3.73883928571428  20 3.82440476190476  20 3.92857142857143  C 20 4.03273809523809  19.9665178571429 4.11830357142857  19.8995535714286 4.18526785714286  L 16.328125 7.75669642857143  C 16.2611607142857 7.82366071428571  16.1755952380952 7.85714285714286  16.0714285714286 7.85714285714286  C 15.9747023809524 7.85714285714286  15.8909970238095 7.82180059523809  15.8203125 7.75111607142857  C 15.7496279761905 7.68043154761905  15.7142857142857 7.59672619047619  15.7142857142857 7.5  L 15.7142857142857 5.35714285714286  L 0.357142857142857 5.35714285714286  C 0.260416666666667 5.35714285714286  0.17671130952381 5.3218005952381  0.106026785714286 5.25111607142857  C 0.0353422619047619 5.18043154761905  0 5.09672619047619  0 5  L 0 2.85714285714286  C 0 2.76041666666667  0.0353422619047619 2.67671130952381  0.106026785714286 2.60602678571429  C 0.17671130952381 2.53534226190476  0.260416666666667 2.5  0.357142857142857 2.5  L 15.7142857142857 2.5  L 15.7142857142857 0.357142857142858  C 15.7142857142857 0.25297619047619  15.7477678571429 0.167410714285715  15.8147321428571 0.100446428571429  C 15.8816964285714 0.0334821428571436  15.9672619047619 0  16.0714285714286 0  C 16.1607142857143 0  16.25 0.0372023809523808  16.3392857142857 0.111607142857142  L 19.8995535714286 3.671875  Z " fill-rule="nonzero" fill="#d9001b" stroke="none" transform="matrix(1 0 0 1 1298 224 )" />
  </g>
</svg>