<?xml version="1.0" encoding="utf-8"?>
<svg version="1.1" xmlns:xlink="http://www.w3.org/1999/xlink" width="541px" height="120px" xmlns="http://www.w3.org/2000/svg">
  <g transform="matrix(1 0 0 1 -684 -391 )">
    <path d="M 901.5 510.5  C 901.5 510.5  901.5 447.042506764374  901.5 447.042506764374  C 901.5 447.042506764374  694.397280155607 469.628570481233  694.397280155607 469.628570481233  C 694.397280155607 469.628570481233  901.5 425.604886965326  901.5 425.604886965326  C 901.5 425.604886965326  901.5 391.5  901.5 391.5  C 901.5 391.5  1224.5 391.5  1224.5 391.5  C 1224.5 391.5  1224.5 510.5  1224.5 510.5  C 1224.5 510.5  901.5 510.5  901.5 510.5  Z " fill-rule="nonzero" fill="#ffffff" stroke="none" />
    <path d="M 901 511  C 901 511  901 447.599999999999  901 447.599999999999  C 901 447.599999999999  684.600000000002 471.200000000001  684.600000000002 471.200000000001  C 684.600000000002 471.200000000001  901 425.200000000001  901 425.200000000001  C 901 425.200000000001  901 391  901 391  C 901 391  1225 391  1225 391  C 1225 391  1225 511  1225 511  C 1225 511  901 511  901 511  Z M 902 510  C 902 510  1224 510  1224 510  C 1224 510  1224 392  1224 392  C 1224 392  902 392  902 392  C 902 392  902 426.009773930652  902 426.009773930652  C 902 426.009773930652  704.194560311212 468.057140962465  704.194560311212 468.057140962465  C 704.194560311212 468.057140962465  902 446.48501352875  902 446.48501352875  C 902 446.48501352875  902 510  902 510  Z " fill-rule="nonzero" fill="#797979" stroke="none" />
  </g>
</svg>