<?xml version="1.0" encoding="utf-8"?>
<svg version="1.1" xmlns:xlink="http://www.w3.org/1999/xlink" width="535px" height="65px" xmlns="http://www.w3.org/2000/svg">
  <g transform="matrix(1 0 0 1 -690 -523 )">
    <path d="M 902.10447761194 587.5  C 902.10447761194 587.5  902.10447761194 557.106569171777  902.10447761194 557.106569171777  C 902.10447761194 557.106569171777  700.972881012187 551.019758921635  700.972881012187 551.019758921635  C 700.972881012187 551.019758921635  902.10447761194 538.060487554642  902.10447761194 538.060487554642  C 902.10447761194 538.060487554642  902.10447761194 523.5  902.10447761194 523.5  C 902.10447761194 523.5  1224.5 523.5  1224.5 523.5  C 1224.5 523.5  1224.5 587.5  1224.5 587.5  C 1224.5 587.5  902.10447761194 587.5  902.10447761194 587.5  Z " fill-rule="nonzero" fill="#ffffff" stroke="none" />
    <path d="M 901.60447761194 588  C 901.60447761194 588  901.60447761194 557.591666666666  901.60447761194 557.591666666666  C 901.60447761194 557.591666666666  690.399253731345 551.200000000001  690.399253731345 551.200000000001  C 690.399253731345 551.200000000001  901.60447761194 537.591666666667  901.60447761194 537.591666666667  C 901.60447761194 537.591666666667  901.60447761194 523  901.60447761194 523  C 901.60447761194 523  1225 523  1225 523  C 1225 523  1225 588  1225 588  C 1225 588  901.60447761194 588  901.60447761194 588  Z M 902.60447761194 587  C 902.60447761194 587  1224 587  1224 587  C 1224 587  1224 524  1224 524  C 1224 524  902.60447761194 524  902.60447761194 524  C 902.60447761194 524  902.60447761194 538.529308442617  902.60447761194 538.529308442617  C 902.60447761194 538.529308442617  711.546508293029 550.839517843269  711.546508293029 550.839517843269  C 711.546508293029 550.839517843269  902.60447761194 556.621471676887  902.60447761194 556.621471676887  C 902.60447761194 556.621471676887  902.60447761194 587  902.60447761194 587  Z " fill-rule="nonzero" fill="#797979" stroke="none" />
  </g>
</svg>