<?xml version="1.0" encoding="utf-8"?>
<svg version="1.1" xmlns:xlink="http://www.w3.org/1999/xlink" width="21px" height="25px" xmlns="http://www.w3.org/2000/svg">
  <g transform="matrix(1 0 0 1 -375 -496 )">
    <path d="M 7 5.35714285714286  L 8.75 5.35714285714286  L 8.75 3.57142857142857  L 7 3.57142857142857  L 7 5.35714285714286  Z M 8.75 7.14285714285714  L 10.5 7.14285714285714  L 10.5 5.35714285714286  L 8.75 5.35714285714286  L 8.75 7.14285714285714  Z M 7 8.92857142857143  L 8.75 8.92857142857143  L 8.75 7.14285714285714  L 7 7.14285714285714  L 7 8.92857142857143  Z M 8.75 10.7142857142857  L 10.5 10.7142857142857  L 10.5 8.92857142857143  L 8.75 8.92857142857143  L 8.75 10.7142857142857  Z M 15.8046875 0.948660714285715  L 20.0703125 5.30133928571428  C 20.3255208333333 5.56175595238095  20.5442708333333 5.91517857142857  20.7265625 6.36160714285714  C 20.9088541666667 6.80803571428572  21 7.2172619047619  21 7.58928571428572  L 21 23.6607142857143  C 21 24.0327380952381  20.8723958333333 24.3489583333333  20.6171875 24.609375  C 20.3619791666667 24.8697916666667  20.0520833333333 25  19.6875 25  L 1.3125 25  C 0.947916666666667 25  0.638020833333333 24.8697916666667  0.3828125 24.609375  C 0.127604166666667 24.3489583333333  0 24.0327380952381  0 23.6607142857143  L 0 1.33928571428572  C 0 0.967261904761904  0.127604166666667 0.651041666666666  0.3828125 0.390625  C 0.638020833333333 0.130208333333334  0.947916666666667 0  1.3125 0  L 13.5625 0  C 13.9270833333333 0  14.328125 0.0930059523809534  14.765625 0.279017857142858  C 15.203125 0.465029761904762  15.5494791666667 0.688244047619047  15.8046875 0.948660714285715  Z M 14.560546875 2.20424107142857  C 14.451171875 2.09263392857143  14.2643229166667 1.99032738095238  14 1.89732142857143  L 14 7.14285714285714  L 19.140625 7.14285714285714  C 19.0494791666667 6.87313988095238  18.94921875 6.68247767857143  18.83984375 6.57087053571428  L 14.560546875 2.20424107142857  Z M 2 23  L 19 23  L 19 8.92857142857143  L 13.5625 8.92857142857143  C 13.1979166666667 8.92857142857143  12.8880208333333 8.79836309523809  12.6328125 8.53794642857143  C 12.3776041666667 8.27752976190476  12.25 7.96130952380952  12.25 7.58928571428572  L 12.25 1.78571428571428  L 10.5 1.78571428571428  L 10.5 3.57142857142857  L 8.75 3.57142857142857  L 8.75 1.78571428571428  L 2 1.78571428571428  L 2 23  Z M 10.36328125 12.6813616071429  C 10.5182291666667 12.8022693452381  10.623046875 12.9603794642857  10.677734375 13.1556919642857  L 12.140625 18.0245535714286  C 12.2135416666667 18.2756696428571  12.25 18.5174851190476  12.25 18.75  C 12.25 19.5219494047619  11.9195963541667 20.161365327381  11.2587890625 20.6682477678571  C 10.5979817708333 21.1751302083333  9.76171875 21.4285714285714  8.75 21.4285714285714  C 7.73828125 21.4285714285714  6.90201822916667 21.1751302083333  6.2412109375 20.6682477678571  C 5.58040364583333 20.161365327381  5.25 19.5219494047619  5.25 18.75  C 5.25 18.5174851190476  5.28645833333333 18.2756696428571  5.359375 18.0245535714286  C 5.55078125 17.4386160714286  6.09765625 15.5970982142857  7 12.5  L 7 10.7142857142857  L 8.75 10.7142857142857  L 8.75 12.5  L 9.830078125 12.5  C 10.0305989583333 12.5  10.2083333333333 12.5604538690476  10.36328125 12.6813616071429  Z M 7.5126953125 19.3777901785714  C 7.8544921875 19.5545014880952  8.26692708333333 19.6428571428571  8.75 19.6428571428571  C 9.23307291666667 19.6428571428571  9.6455078125 19.5545014880952  9.9873046875 19.3777901785714  C 10.3291015625 19.2010788690476  10.5 18.9918154761905  10.5 18.75  C 10.5 18.5081845238095  10.3291015625 18.2989211309524  9.9873046875 18.1222098214286  C 9.6455078125 17.9454985119048  9.23307291666667 17.8571428571429  8.75 17.8571428571429  C 8.26692708333333 17.8571428571429  7.8544921875 17.9454985119048  7.5126953125 18.1222098214286  C 7.1708984375 18.2989211309524  7 18.5081845238095  7 18.75  C 7 18.9918154761905  7.1708984375 19.2010788690476  7.5126953125 19.3777901785714  Z " fill-rule="nonzero" fill="#02a7f0" stroke="none" transform="matrix(1 0 0 1 375 496 )" />
  </g>
</svg>